<?xml version="1.0" encoding="UTF-8" standalone="no"?>
<!-- Generator: Adobe Illustrator 18.1.1, SVG Export Plug-In . SVG Version: 6.00 Build 0)  -->

<svg
   xmlns:dc="http://purl.org/dc/elements/1.1/"
   xmlns:cc="http://creativecommons.org/ns#"
   xmlns:rdf="http://www.w3.org/1999/02/22-rdf-syntax-ns#"
   xmlns:svg="http://www.w3.org/2000/svg"
   xmlns="http://www.w3.org/2000/svg"
   xmlns:sodipodi="http://sodipodi.sourceforge.net/DTD/sodipodi-0.dtd"
   xmlns:inkscape="http://www.inkscape.org/namespaces/inkscape"
   version="1.1"
   id="Capa_1"
   x="0px"
   y="0px"
   viewBox="0 0 48 48"
   xml:space="preserve"
   inkscape:version="0.91 r13725"
   width="100%"
   height="100%"
   sodipodi:docname="icon.svg"
   inkscape:export-filename="/home/gelin/work/bitbucket/sniper/src/main/res/drawable-xhdpi/icon.png"
   inkscape:export-xdpi="180"
   inkscape:export-ydpi="180"><metadata
     id="metadata43"><rdf:RDF><cc:Work
         rdf:about=""><dc:format>image/svg+xml</dc:format><dc:type
           rdf:resource="http://purl.org/dc/dcmitype/StillImage" /><dc:title /></cc:Work></rdf:RDF></metadata><defs
     id="defs41" /><sodipodi:namedview
     pagecolor="#ffffff"
     bordercolor="#666666"
     borderopacity="1"
     objecttolerance="10"
     gridtolerance="10"
     guidetolerance="10"
     inkscape:pageopacity="0"
     inkscape:pageshadow="2"
     inkscape:window-width="1876"
     inkscape:window-height="1051"
     id="namedview39"
     showgrid="true"
     inkscape:zoom="10.488889"
     inkscape:cx="-0.6149428"
     inkscape:cy="34.528175"
     inkscape:window-x="44"
     inkscape:window-y="0"
     inkscape:window-maximized="1"
     inkscape:current-layer="Capa_1"><inkscape:grid
       type="xygrid"
       id="grid3039"
       empspacing="5"
       visible="true"
       enabled="true"
       snapvisiblegridlinesonly="true" /></sodipodi:namedview><g
     id="g9"
     transform="translate(0,-42)" /><g
     id="g11"
     transform="translate(0,-42)" /><g
     id="g13"
     transform="translate(0,-42)" /><g
     id="g15"
     transform="translate(0,-42)" /><g
     id="g17"
     transform="translate(0,-42)" /><g
     id="g19"
     transform="translate(0,-42)" /><g
     id="g21"
     transform="translate(0,-42)" /><g
     id="g23"
     transform="translate(0,-42)" /><g
     id="g25"
     transform="translate(0,-42)" /><g
     id="g27"
     transform="translate(0,-42)" /><g
     id="g29"
     transform="translate(0,-42)" /><g
     id="g31"
     transform="translate(0,-42)" /><g
     id="g33"
     transform="translate(0,-42)" /><g
     id="g35"
     transform="translate(0,-42)" /><g
     id="g37"
     transform="translate(0,-42)" /><g
     id="g4207"
     transform="matrix(1.1448154,0,0,1.0991928,-1.5109782,-5.3538884)"><g
       style="fill:#2e3379;fill-opacity:1"
       id="g3041"
       transform="matrix(0.37155601,0,0,0.37155601,2.6507422,12.487872)"><g
         style="fill:#2e3379;fill-opacity:1"
         id="g3043"><path
           style="fill:#2e3379;fill-opacity:1"
           d="m 70,60 c -3.436,0 -6.592,1.168 -9.121,3.112 L 34.783,47.455 C 34.914,46.654 35,45.837 35,45 35,44.161 34.914,43.346 34.783,42.544 L 60.879,26.887 C 63.408,28.833 66.564,30 70,30 78.283,30 85,23.283 85,15 85,6.717 78.283,0 70,0 61.717,0 55,6.717 55,15 c 0,0.837 0.086,1.654 0.219,2.455 L 29.123,33.112 C 26.594,31.168 23.438,30 20,30 11.717,30 5,36.717 5,45 c 0,8.283 6.717,15 15,15 3.438,0 6.594,-1.167 9.123,-3.113 L 55.219,72.544 C 55.086,73.346 55,74.161 55,75 c 0,8.283 6.717,15 15,15 8.283,0 15,-6.717 15,-15 0,-8.283 -6.717,-15 -15,-15 z"
           id="path3045"
           inkscape:connector-curvature="0" /></g></g><g
       transform="translate(-34.941737,5.4819915)"
       id="g4200"><ellipse
         style="fill:#ff0000;fill-rule:evenodd;stroke:#000000;stroke-width:0;stroke-linecap:butt;stroke-linejoin:miter;stroke-miterlimit:4;stroke-dasharray:none;stroke-opacity:1"
         id="path3373"
         cx="64.000526"
         cy="12.976695"
         rx="11.000529"
         ry="10.976695" /><ellipse
         cy="13.00053"
         cx="63.972794"
         id="circle4192"
         style="fill:#ffffff;fill-opacity:1;fill-rule:evenodd;stroke:#000000;stroke-width:0;stroke-linecap:butt;stroke-linejoin:miter;stroke-miterlimit:4;stroke-dasharray:none;stroke-opacity:1"
         rx="8.9230061"
         ry="9.0460815" /><ellipse
         ry="6.9724603"
         rx="6.9724598"
         cy="13.024365"
         cx="63.976688"
         id="ellipse4194"
         style="fill:#ff0000;fill-rule:evenodd;stroke:#000000;stroke-width:0;stroke-linecap:butt;stroke-linejoin:miter;stroke-miterlimit:4;stroke-dasharray:none;stroke-opacity:1" /><ellipse
         ry="4.9465075"
         rx="5.0141106"
         style="fill:#ffffff;fill-opacity:1;fill-rule:evenodd;stroke:#000000;stroke-width:0;stroke-linecap:butt;stroke-linejoin:miter;stroke-miterlimit:4;stroke-dasharray:none;stroke-opacity:1"
         id="ellipse4196"
         cx="64.020462"
         cy="12.952862" /><ellipse
         style="fill:#ff0000;fill-rule:evenodd;stroke:#000000;stroke-width:0;stroke-linecap:butt;stroke-linejoin:miter;stroke-miterlimit:4;stroke-dasharray:none;stroke-opacity:1"
         id="ellipse4198"
         cx="64.048195"
         cy="13.00053"
         rx="2.9920607"
         ry="3.0397305" /></g></g></svg>